<mxfile host="app.diagrams.net" agent="Mozilla/5.0 (Windows NT 10.0; Win64; x64) AppleWebKit/537.36 (KHTML, like Gecko) Chrome/133.0.0.0 Safari/537.36 Edg/133.0.0.0" version="26.0.16">
  <diagram name="Page-1" id="7A_XvfunDwMA8VDyP_Rp">
    <mxGraphModel dx="1184" dy="1099" grid="0" gridSize="10" guides="1" tooltips="1" connect="1" arrows="1" fold="1" page="0" pageScale="1" pageWidth="827" pageHeight="1169" math="0" shadow="0">
      <root>
        <mxCell id="0" />
        <mxCell id="1" parent="0" />
        <mxCell id="5WoruL2yJDNqAh5ooRxy-1" value="SetOnList&amp;lt;T&amp;gt; : IEnumerable&amp;lt;T&amp;gt;" style="swimlane;fontStyle=1;align=center;verticalAlign=top;childLayout=stackLayout;horizontal=1;startSize=26;horizontalStack=0;resizeParent=1;resizeParentMax=0;resizeLast=0;collapsible=1;marginBottom=0;whiteSpace=wrap;html=1;fillColor=#ffe6cc;strokeColor=#d79b00;" vertex="1" parent="1">
          <mxGeometry x="39" y="252" width="360" height="440" as="geometry" />
        </mxCell>
        <mxCell id="5WoruL2yJDNqAh5ooRxy-2" value="List&amp;lt;T&amp;gt; _items" style="text;strokeColor=none;fillColor=none;align=left;verticalAlign=top;spacingLeft=4;spacingRight=4;overflow=hidden;rotatable=0;points=[[0,0.5],[1,0.5]];portConstraint=eastwest;whiteSpace=wrap;html=1;" vertex="1" parent="5WoruL2yJDNqAh5ooRxy-1">
          <mxGeometry y="26" width="360" height="26" as="geometry" />
        </mxCell>
        <mxCell id="5WoruL2yJDNqAh5ooRxy-3" value="" style="line;strokeWidth=1;fillColor=none;align=left;verticalAlign=middle;spacingTop=-1;spacingLeft=3;spacingRight=3;rotatable=0;labelPosition=right;points=[];portConstraint=eastwest;strokeColor=inherit;" vertex="1" parent="5WoruL2yJDNqAh5ooRxy-1">
          <mxGeometry y="52" width="360" height="8" as="geometry" />
        </mxCell>
        <mxCell id="5WoruL2yJDNqAh5ooRxy-5" value="int Count" style="text;strokeColor=none;fillColor=none;align=left;verticalAlign=top;spacingLeft=4;spacingRight=4;overflow=hidden;rotatable=0;points=[[0,0.5],[1,0.5]];portConstraint=eastwest;whiteSpace=wrap;html=1;" vertex="1" parent="5WoruL2yJDNqAh5ooRxy-1">
          <mxGeometry y="60" width="360" height="26" as="geometry" />
        </mxCell>
        <mxCell id="5WoruL2yJDNqAh5ooRxy-7" value="bool IsEmpty" style="text;strokeColor=none;fillColor=none;align=left;verticalAlign=top;spacingLeft=4;spacingRight=4;overflow=hidden;rotatable=0;points=[[0,0.5],[1,0.5]];portConstraint=eastwest;whiteSpace=wrap;html=1;" vertex="1" parent="5WoruL2yJDNqAh5ooRxy-1">
          <mxGeometry y="86" width="360" height="26" as="geometry" />
        </mxCell>
        <mxCell id="5WoruL2yJDNqAh5ooRxy-10" value="" style="line;strokeWidth=1;fillColor=none;align=left;verticalAlign=middle;spacingTop=-1;spacingLeft=3;spacingRight=3;rotatable=0;labelPosition=right;points=[];portConstraint=eastwest;strokeColor=inherit;" vertex="1" parent="5WoruL2yJDNqAh5ooRxy-1">
          <mxGeometry y="112" width="360" height="8" as="geometry" />
        </mxCell>
        <mxCell id="5WoruL2yJDNqAh5ooRxy-4" value="SetOnList()" style="text;strokeColor=none;fillColor=none;align=left;verticalAlign=top;spacingLeft=4;spacingRight=4;overflow=hidden;rotatable=0;points=[[0,0.5],[1,0.5]];portConstraint=eastwest;whiteSpace=wrap;html=1;" vertex="1" parent="5WoruL2yJDNqAh5ooRxy-1">
          <mxGeometry y="120" width="360" height="26" as="geometry" />
        </mxCell>
        <mxCell id="5WoruL2yJDNqAh5ooRxy-8" value="SetOnList(T data)" style="text;strokeColor=none;fillColor=none;align=left;verticalAlign=top;spacingLeft=4;spacingRight=4;overflow=hidden;rotatable=0;points=[[0,0.5],[1,0.5]];portConstraint=eastwest;whiteSpace=wrap;html=1;" vertex="1" parent="5WoruL2yJDNqAh5ooRxy-1">
          <mxGeometry y="146" width="360" height="26" as="geometry" />
        </mxCell>
        <mxCell id="5WoruL2yJDNqAh5ooRxy-9" value="SetOnList(IEnumerable data)" style="text;strokeColor=none;fillColor=none;align=left;verticalAlign=top;spacingLeft=4;spacingRight=4;overflow=hidden;rotatable=0;points=[[0,0.5],[1,0.5]];portConstraint=eastwest;whiteSpace=wrap;html=1;" vertex="1" parent="5WoruL2yJDNqAh5ooRxy-1">
          <mxGeometry y="172" width="360" height="26" as="geometry" />
        </mxCell>
        <mxCell id="5WoruL2yJDNqAh5ooRxy-6" value="" style="line;strokeWidth=1;fillColor=none;align=left;verticalAlign=middle;spacingTop=-1;spacingLeft=3;spacingRight=3;rotatable=0;labelPosition=right;points=[];portConstraint=eastwest;strokeColor=inherit;" vertex="1" parent="5WoruL2yJDNqAh5ooRxy-1">
          <mxGeometry y="198" width="360" height="8" as="geometry" />
        </mxCell>
        <mxCell id="5WoruL2yJDNqAh5ooRxy-11" value="void Add(T data)" style="text;strokeColor=none;fillColor=none;align=left;verticalAlign=top;spacingLeft=4;spacingRight=4;overflow=hidden;rotatable=0;points=[[0,0.5],[1,0.5]];portConstraint=eastwest;whiteSpace=wrap;html=1;" vertex="1" parent="5WoruL2yJDNqAh5ooRxy-1">
          <mxGeometry y="206" width="360" height="26" as="geometry" />
        </mxCell>
        <mxCell id="5WoruL2yJDNqAh5ooRxy-19" value="void Remove(T data)" style="text;strokeColor=none;fillColor=none;align=left;verticalAlign=top;spacingLeft=4;spacingRight=4;overflow=hidden;rotatable=0;points=[[0,0.5],[1,0.5]];portConstraint=eastwest;whiteSpace=wrap;html=1;" vertex="1" parent="5WoruL2yJDNqAh5ooRxy-1">
          <mxGeometry y="232" width="360" height="26" as="geometry" />
        </mxCell>
        <mxCell id="5WoruL2yJDNqAh5ooRxy-12" value="void Clear()" style="text;strokeColor=none;fillColor=none;align=left;verticalAlign=top;spacingLeft=4;spacingRight=4;overflow=hidden;rotatable=0;points=[[0,0.5],[1,0.5]];portConstraint=eastwest;whiteSpace=wrap;html=1;" vertex="1" parent="5WoruL2yJDNqAh5ooRxy-1">
          <mxGeometry y="258" width="360" height="26" as="geometry" />
        </mxCell>
        <mxCell id="5WoruL2yJDNqAh5ooRxy-13" value="SetOnList&amp;lt;T&amp;gt; UnionWith(SetOnList&amp;lt;T&amp;gt; set)" style="text;strokeColor=none;fillColor=none;align=left;verticalAlign=top;spacingLeft=4;spacingRight=4;overflow=hidden;rotatable=0;points=[[0,0.5],[1,0.5]];portConstraint=eastwest;whiteSpace=wrap;html=1;" vertex="1" parent="5WoruL2yJDNqAh5ooRxy-1">
          <mxGeometry y="284" width="360" height="26" as="geometry" />
        </mxCell>
        <mxCell id="5WoruL2yJDNqAh5ooRxy-15" value="SetOnList&amp;lt;T&amp;gt; IntersectWith(SetOnList&amp;lt;T&amp;gt; set)" style="text;strokeColor=none;fillColor=none;align=left;verticalAlign=top;spacingLeft=4;spacingRight=4;overflow=hidden;rotatable=0;points=[[0,0.5],[1,0.5]];portConstraint=eastwest;whiteSpace=wrap;html=1;" vertex="1" parent="5WoruL2yJDNqAh5ooRxy-1">
          <mxGeometry y="310" width="360" height="26" as="geometry" />
        </mxCell>
        <mxCell id="5WoruL2yJDNqAh5ooRxy-16" value="SetOnList&amp;lt;T&amp;gt; DifferenceWith(SetOnList&amp;lt;T&amp;gt; set)" style="text;strokeColor=none;fillColor=none;align=left;verticalAlign=top;spacingLeft=4;spacingRight=4;overflow=hidden;rotatable=0;points=[[0,0.5],[1,0.5]];portConstraint=eastwest;whiteSpace=wrap;html=1;" vertex="1" parent="5WoruL2yJDNqAh5ooRxy-1">
          <mxGeometry y="336" width="360" height="26" as="geometry" />
        </mxCell>
        <mxCell id="5WoruL2yJDNqAh5ooRxy-17" value="bool IsSubset(SetOnList&amp;lt;T&amp;gt; set)" style="text;strokeColor=none;fillColor=none;align=left;verticalAlign=top;spacingLeft=4;spacingRight=4;overflow=hidden;rotatable=0;points=[[0,0.5],[1,0.5]];portConstraint=eastwest;whiteSpace=wrap;html=1;" vertex="1" parent="5WoruL2yJDNqAh5ooRxy-1">
          <mxGeometry y="362" width="360" height="26" as="geometry" />
        </mxCell>
        <mxCell id="5WoruL2yJDNqAh5ooRxy-18" value="SetOnList&amp;lt;T&amp;gt; SymethricDifferenceWith(SetOnList&amp;lt;T&amp;gt; set)" style="text;strokeColor=none;fillColor=none;align=left;verticalAlign=top;spacingLeft=4;spacingRight=4;overflow=hidden;rotatable=0;points=[[0,0.5],[1,0.5]];portConstraint=eastwest;whiteSpace=wrap;html=1;" vertex="1" parent="5WoruL2yJDNqAh5ooRxy-1">
          <mxGeometry y="388" width="360" height="26" as="geometry" />
        </mxCell>
        <mxCell id="5WoruL2yJDNqAh5ooRxy-20" value="IEnumerator GetEnumerator()" style="text;strokeColor=none;fillColor=none;align=left;verticalAlign=top;spacingLeft=4;spacingRight=4;overflow=hidden;rotatable=0;points=[[0,0.5],[1,0.5]];portConstraint=eastwest;whiteSpace=wrap;html=1;" vertex="1" parent="5WoruL2yJDNqAh5ooRxy-1">
          <mxGeometry y="414" width="360" height="26" as="geometry" />
        </mxCell>
      </root>
    </mxGraphModel>
  </diagram>
</mxfile>
